<svg xmlns="http://www.w3.org/2000/svg" width="165.184" height="62.44" viewBox="0 0 165.184 62.44">
  <g id="Group_18700" data-name="Group 18700" transform="translate(-115 -82.338)">
    <g id="scix_final-03" data-name="scix final-03" transform="translate(106 73.338)">
      <rect id="Rectangle_3494" data-name="Rectangle 3494" width="12.488" height="12.488" rx="2.08" transform="translate(31.714 9)" fill="#fff"/>
      <rect id="Rectangle_3495" data-name="Rectangle 3495" width="12.488" height="12.488" rx="2.08" transform="translate(44.202 21.488)" fill="#fff"/>
      <rect id="Rectangle_3496" data-name="Rectangle 3496" width="7.775" height="7.775" rx="1.435" transform="translate(29.206 31.619) rotate(180)" fill="#fff"/>
      <rect id="Rectangle_3497" data-name="Rectangle 3497" width="7.775" height="7.775" rx="1.435" transform="translate(9 36.333)" fill="#fff"/>
      <rect id="Rectangle_3498" data-name="Rectangle 3498" width="12.488" height="12.488" rx="2.08" transform="translate(31.714 33.976)" fill="#fff"/>
      <rect id="Rectangle_3499" data-name="Rectangle 3499" width="12.488" height="12.488" rx="2.08" transform="translate(56.69 33.976)" fill="#fff"/>
      <rect id="Rectangle_3500" data-name="Rectangle 3500" width="7.775" height="7.775" rx="1.435" transform="translate(21.432 48.821)" fill="#fff"/>
      <rect id="Rectangle_3501" data-name="Rectangle 3501" width="12.488" height="12.488" rx="2.08" transform="translate(44.202 46.464)" fill="#fff"/>
      <rect id="Rectangle_3502" data-name="Rectangle 3502" width="12.488" height="12.488" rx="2.08" transform="translate(31.714 58.952)" fill="#fff"/>
      <path id="Path_17816" data-name="Path 17816" d="M50.739,18,75.715,42.976,50.739,68.339" transform="translate(-12.781 -2.756)" fill="none" stroke="#fff" stroke-miterlimit="10" stroke-width="3"/>
      <path id="Path_17817" data-name="Path 17817" d="M63.115,35.838l-12.376,12.6,12.376,12.8" transform="translate(-12.781 -8.218)" fill="none" stroke="#fff" stroke-miterlimit="10" stroke-width="3"/>
      <path id="Path_17818" data-name="Path 17818" d="M134.082,41.9a8.431,8.431,0,0,1-2.375,5.9,8.455,8.455,0,0,1-6.06,14.331H108.624V57.01h17.024a3.373,3.373,0,0,0,3.357-3.358,3.335,3.335,0,0,0-3.153-3.357H113.783V45.177h12.069a3.36,3.36,0,0,0-.164-6.715H108.665V33.344h17.023a8.423,8.423,0,0,1,8.435,8.435Z" transform="translate(-30.507 -7.455)" fill="#fff"/>
      <path id="Path_17819" data-name="Path 17819" d="M155.806,47.5a9.227,9.227,0,0,0,9.213,9.213h11.356v5.118H165.019a14.331,14.331,0,0,1,0-28.662h11.356v5.118H165.019A9.227,9.227,0,0,0,155.806,47.5Z" transform="translate(-43.388 -7.4)" fill="#fff"/>
      <path id="Path_17820" data-name="Path 17820" d="M193.858,61.829V33.167h5.118V61.829Z" transform="translate(-56.607 -7.4)" fill="#fff"/>
      <path id="Path_17821" data-name="Path 17821" d="M205.661,61.888h.082l-.082.082ZM234.4,33.226,223.309,47.6l11.056,14.29h-6.469l-7.82-10.114-7.821,10.114h-6.469L216.8,47.6,205.7,33.226h6.469l7.862,10.2,7.862-10.2h6.51Zm-.082,28.744-.041-.082h.041Z" transform="translate(-60.221 -7.418)" fill="#fff"/>
    </g>
  </g>
</svg>
