<svg xmlns="http://www.w3.org/2000/svg" width="24.22" height="24.214" viewBox="0 0 24.22 24.214">
  <path id="Path_19175" data-name="Path 19175" d="M170.086,46.207a12.144,12.144,0,0,1-.248,2.437,12,12,0,0,1-.706,2.275,11.847,11.847,0,0,1-1.117,2.056,12.166,12.166,0,0,1-1.477,1.792,12.4,12.4,0,0,1-1.792,1.478,12.116,12.116,0,0,1-6.77,2.069,12.184,12.184,0,0,1-4.715-.953,12.244,12.244,0,0,1-2.058-1.116,12.192,12.192,0,0,1-3.269-3.27,12.074,12.074,0,0,1-1.823-4.331,12.1,12.1,0,0,1,.707-7.15,12.022,12.022,0,0,1,1.117-2.057,12.175,12.175,0,0,1,1.477-1.792,12.33,12.33,0,0,1,1.79-1.476,12.162,12.162,0,0,1,2.058-1.119,11.975,11.975,0,0,1,2.276-.7,12.213,12.213,0,0,1,4.877,0,11.955,11.955,0,0,1,4.331,1.823,12.341,12.341,0,0,1,1.792,1.476,12.173,12.173,0,0,1,1.477,1.792,11.843,11.843,0,0,1,1.117,2.057,11.978,11.978,0,0,1,.706,2.275A12.133,12.133,0,0,1,170.086,46.207Zm-16.523-9.352a10.351,10.351,0,0,0-5.708,7.22,38.379,38.379,0,0,0,9.547-1.262A62.257,62.257,0,0,0,153.563,36.855Zm4.7,7.55a37.748,37.748,0,0,1-10.618,1.472c0,.111-.008.219-.008.33a10.292,10.292,0,0,0,2.65,6.908,16.293,16.293,0,0,1,8.407-6.829c.135-.045.271-.085.407-.124C158.839,45.574,158.556,44.985,158.26,44.4Zm6.545-5.958a10.291,10.291,0,0,0-6.829-2.579,10.4,10.4,0,0,0-2.437.29,53.225,53.225,0,0,1,3.866,6.031A11.277,11.277,0,0,0,164.805,38.447Zm-5,9.428c-.024.008-.047.014-.069.023-6.1,2.127-8.094,6.412-8.115,6.459a10.335,10.335,0,0,0,10.393,1.369A43.022,43.022,0,0,0,159.8,47.875Zm3.95,6.906a10.34,10.34,0,0,0,4.431-6.936,15,15,0,0,0-6.444-.449A44.8,44.8,0,0,1,163.755,54.781ZM160.2,43.73c.241.493.473.995.688,1.5.076.181.151.358.224.536a24.054,24.054,0,0,1,7.2.336,10.284,10.284,0,0,0-2.352-6.461A13.314,13.314,0,0,1,160.2,43.73Z" transform="translate(-145.866 -34.1)" fill="#237feb" fill-rule="evenodd"/>
</svg>
