<svg xmlns="http://www.w3.org/2000/svg" width="71" height="71" viewBox="0 0 71 71">
  <g id="Group_18693" data-name="Group 18693" transform="translate(-1112 -2242)">
    <rect id="Rectangle_3593" data-name="Rectangle 3593" width="71" height="71" rx="35.5" transform="translate(1112 2242)" fill="#237feb"/>
    <g id="Group_14660" data-name="Group 14660" transform="translate(1120.999 2251)">
      <path id="Path_19153" data-name="Path 19153" d="M249.329,52.737a26.737,26.737,0,1,1,26.737,26.737A26.737,26.737,0,0,1,249.329,52.737Z" transform="translate(-249.329 -26)" fill="#fff" fill-rule="evenodd" opacity="0.15"/>
    </g>
    <g id="Group_18682" data-name="Group 18682" transform="translate(1138.945 2261.96)">
      <g id="Group_18623" data-name="Group 18623">
        <path id="Path_60899" data-name="Path 60899" d="M163.107,114.979c0-.012,0-.024,0-.036s0-.033-.006-.049,0-.02,0-.03-.008-.038-.013-.056,0-.014-.005-.021c-.007-.023-.015-.046-.024-.068l0-.007a.767.767,0,0,0-.036-.076L155.237,100.4a.778.778,0,0,0-1.365,0L146.1,114.636a.763.763,0,0,0-.036.076l0,.007c-.009.022-.017.045-.024.068,0,.007,0,.014-.005.021s-.01.037-.013.056,0,.02,0,.03,0,.032-.006.049,0,.024,0,.036,0,.019,0,.029,0,.01,0,.015,0,.024,0,.037,0,.031,0,.046,0,.021,0,.032.006.033.01.05l.007.028c0,.018.01.035.017.052s0,.01,0,.015l2.8,7.432a2.333,2.333,0,0,0,.256,4.291v4.255a.778.778,0,0,0,.778.778h9.332a.778.778,0,0,0,.778-.778v-4.254a2.333,2.333,0,0,0,.256-4.291l2.8-7.433s0-.01,0-.015.012-.035.017-.052l.007-.028c0-.016.007-.033.01-.05s0-.021,0-.032,0-.031,0-.046,0-.024,0-.037,0-.01,0-.015S163.108,114.989,163.107,114.979Zm-8.553-.748a.778.778,0,1,1-.778.778A.779.779,0,0,1,154.554,114.231Zm3.888,16.253h-7.777V127.14h7.777Zm1.327-5.127a.772.772,0,0,1-.55.228h-9.332a.778.778,0,0,1,0-1.555h9.335a.777.777,0,0,1,.547,1.327Zm-1.087-2.883h-8.256l-2.524-6.688h1.986a.778.778,0,1,0,0-1.555h-1.8l5.688-10.409v8.987a2.333,2.333,0,1,0,1.555,0v-8.987l5.688,10.409h-1.8a.778.778,0,0,0,0,1.555h1.986Z" transform="translate(-146 -100)" fill="#fff"/>
      </g>
    </g>
  </g>
</svg>
