<svg id="Group_14642" data-name="Group 14642" xmlns="http://www.w3.org/2000/svg" width="44.735" height="44.735" viewBox="0 0 44.735 44.735">
  <path id="Path_19153" data-name="Path 19153" d="M249.329,48.367a22.367,22.367,0,1,1,38.183,15.816A22.125,22.125,0,0,1,271.7,70.735,22.367,22.367,0,0,1,249.329,48.367Z" transform="translate(-249.329 -26)" fill="#fff" fill-rule="evenodd" opacity="0.15"/>
  <path id="direct" d="M7.785,15.268a.6.6,0,0,0-.856,0L5.344,16.852a.6.6,0,0,0,.856.855l1.585-1.585a.6.6,0,0,0,0-.855Zm-4.3-4.3a.6.6,0,0,0-.855,0L1.045,12.553a.6.6,0,0,0,.855.856l1.585-1.585a.6.6,0,0,0,0-.856ZM6.352,12.4a.605.605,0,0,0-.856,0L1.479,16.418a.605.605,0,0,0,.856.856l4.017-4.017A.6.6,0,0,0,6.352,12.4ZM18.723.793,16.4,7.9,12.99,18.336a.605.605,0,0,1-1.1.116l-3.855-6.63a.6.6,0,0,1,.037-.665L9.459,9.295,7.6,10.679c-.194.144-.665.037-.665.037L.3,6.861a.605.605,0,0,1,.116-1.1L17.96.03a.606.606,0,0,1,.763.763Z" transform="translate(13 13)" fill="#fff"/>
</svg>
