<svg xmlns="http://www.w3.org/2000/svg" width="18.753" height="18.753" viewBox="0 0 18.753 18.753">
  <path id="direct" d="M7.785,15.268a.6.6,0,0,0-.856,0L5.344,16.852a.6.6,0,0,0,.856.855l1.585-1.585a.6.6,0,0,0,0-.855Zm-4.3-4.3a.6.6,0,0,0-.855,0L1.045,12.553a.6.6,0,0,0,.855.856l1.585-1.585a.6.6,0,0,0,0-.856ZM6.352,12.4a.605.605,0,0,0-.856,0L1.479,16.418a.605.605,0,0,0,.856.856l4.017-4.017A.6.6,0,0,0,6.352,12.4ZM18.723.793,12.99,18.336a.605.605,0,0,1-1.1.116l-3.855-6.63a.6.6,0,0,1,.037-.665L9.459,9.295,7.6,10.679a.6.6,0,0,1-.665.037L.3,6.861a.605.605,0,0,1,.116-1.1L17.96.03a.606.606,0,0,1,.763.763Z" transform="translate(0 0)" fill="#237feb"/>
</svg>
