<svg xmlns="http://www.w3.org/2000/svg" width="23.004" height="23.032" viewBox="0 0 23.004 23.032">
  <path id="Path_19173" data-name="Path 19173" d="M101.593,34.1c-3.124,0-3.516.014-4.743.07a8.434,8.434,0,0,0-2.792.535,5.887,5.887,0,0,0-3.365,3.368,8.418,8.418,0,0,0-.534,2.8c-.055,1.228-.069,1.621-.069,4.749s.014,3.519.07,4.747a8.472,8.472,0,0,0,.534,2.8,5.889,5.889,0,0,0,3.363,3.369,8.439,8.439,0,0,0,2.792.535c1.227.056,1.619.07,4.742.07s3.515-.014,4.742-.07a8.443,8.443,0,0,0,2.793-.535,5.9,5.9,0,0,0,3.364-3.369,8.578,8.578,0,0,0,.535-2.8c.055-1.228.068-1.62.068-4.748s-.014-3.52-.068-4.748a8.574,8.574,0,0,0-.535-2.8,5.888,5.888,0,0,0-3.364-3.368,8.467,8.467,0,0,0-2.794-.535c-1.228-.056-1.619-.07-4.743-.07Zm-1.032,2.075h1.032c3.071,0,3.436.011,4.649.066a6.358,6.358,0,0,1,2.135.4,3.814,3.814,0,0,1,2.183,2.186,6.39,6.39,0,0,1,.4,2.138c.055,1.214.067,1.579.067,4.652s-.012,3.438-.067,4.652a6.391,6.391,0,0,1-.4,2.138,3.817,3.817,0,0,1-2.183,2.184,6.333,6.333,0,0,1-2.135.4c-1.213.055-1.577.067-4.649.067s-3.435-.012-4.648-.067a6.373,6.373,0,0,1-2.136-.4A3.813,3.813,0,0,1,92.626,52.4a6.37,6.37,0,0,1-.4-2.138c-.055-1.214-.066-1.579-.066-4.654s.011-3.438.066-4.652a6.383,6.383,0,0,1,.4-2.138,3.814,3.814,0,0,1,2.184-2.186,6.348,6.348,0,0,1,2.136-.4c1.061-.048,1.472-.062,3.616-.065Zm7.172,1.912a1.382,1.382,0,1,0,1.38,1.381A1.381,1.381,0,0,0,107.733,38.087Zm-6.14,1.615a5.913,5.913,0,1,0,5.906,5.914A5.911,5.911,0,0,0,101.593,39.7Zm0,2.075a3.839,3.839,0,1,1-3.834,3.839A3.836,3.836,0,0,1,101.593,41.777Z" transform="translate(-90.09 -34.1)" fill="#237feb" fill-rule="evenodd"/>
</svg>
