<svg xmlns="http://www.w3.org/2000/svg" width="23.06" height="17.565" viewBox="0 0 23.06 17.565">
  <g id="Group_14670" data-name="Group 14670" transform="translate(-1553 -5756)">
    <g id="Group_94" data-name="Group 94" transform="translate(1554.158 5756)">
      <path id="Path_2033" data-name="Path 2033" d="M45.6,61H26.589a2,2,0,0,0-.868.2L36.047,71.53l2.315-2.224h0l8.1-8.1A2,2,0,0,0,45.6,61Z" transform="translate(-25.721 -61)" fill="#237feb"/>
    </g>
    <g id="Group_96" data-name="Group 96" transform="translate(1568.232 5757.158)">
      <path id="Path_2034" data-name="Path 2034" d="M345.837,86.728l-7.624,7.624,7.624,7.624a2,2,0,0,0,.2-.868V87.6A2,2,0,0,0,345.837,86.728Z" transform="translate(-338.213 -86.728)" fill="#237feb"/>
    </g>
    <g id="Group_98" data-name="Group 98" transform="translate(1553 5757.158)">
      <path id="Path_2035" data-name="Path 2035" d="M.2,86.721a2,2,0,0,0-.2.868V101.1a2,2,0,0,0,.2.868l7.624-7.624Z" transform="translate(0 -86.721)" fill="#237feb"/>
    </g>
    <g id="Group_100" data-name="Group 100" transform="translate(1554.158 5765.738)">
      <path id="Path_2036" data-name="Path 2036" d="M38.833,277.211l-2.315,2.225a.675.675,0,0,1-.955,0l-2.225-2.225-7.624,7.624a2,2,0,0,0,.869.2H45.589a2,2,0,0,0,.868-.2Z" transform="translate(-25.714 -277.211)" fill="#237feb"/>
    </g>
  </g>
</svg>
