<svg xmlns="http://www.w3.org/2000/svg" width="19.352" height="19.352" viewBox="0 0 19.352 19.352">
  <path id="Path_19171" data-name="Path 19171" d="M17.5,12.486a10.8,10.8,0,0,1-3.392-.54,1.55,1.55,0,0,0-1.508.318l-2.139,1.615A11.82,11.82,0,0,1,5.143,8.565L6.71,6.482a1.538,1.538,0,0,0,.378-1.558,10.817,10.817,0,0,1-.542-3.4A1.528,1.528,0,0,0,5.02,0H1.526A1.528,1.528,0,0,0,0,1.526a17.516,17.516,0,0,0,17.5,17.5A1.528,1.528,0,0,0,19.023,17.5V14.013A1.528,1.528,0,0,0,17.5,12.486Z" transform="matrix(1, -0.017, 0.017, 1, 0, 0.332)" fill="#237feb"/>
</svg>
