<svg xmlns="http://www.w3.org/2000/svg" width="184.384" height="65.161" viewBox="0 0 184.384 65.161">
  <g id="shopify-ar21" transform="translate(0)" opacity="0.19">
    <path id="Path_19164" data-name="Path 19164" d="M59.867,24.943a.642.642,0,0,0-.574-.537c-.229-.037-5.262-.385-5.262-.385l-3.838-3.838c-.345-.385-1.111-.271-1.4-.191-.037,0-.766.229-1.956.616-1.159-3.348-3.209-6.421-6.817-6.421h-.308a4.472,4.472,0,0,0-3.374-1.956c-8.4.037-12.413,10.521-13.678,15.878l-5.875,1.8c-1.8.574-1.87.616-2.109,2.334l-4.952,38.2,37.125,6.949L66.97,73.054c0-.037-7.065-47.745-7.1-48.108Zm-15.09-3.689c-.935.308-2.017.616-3.146.963v-.691a15.24,15.24,0,0,0-.766-5.09c1.881.29,3.146,2.4,3.913,4.818ZM38.6,16.879a15.581,15.581,0,0,1,.84,5.629v.345l-6.491,2.017c1.271-4.743,3.612-7.088,5.647-7.97ZM36.1,14.545a1.988,1.988,0,0,1,1.074.345c-2.708,1.261-5.57,4.444-6.8,10.818L25.247,27.28C26.7,22.444,30.074,14.534,36.1,14.534Z" transform="translate(-9.724 -12.231)"/>
    <path id="Path_19165" data-name="Path 19165" d="M42.415,20.894c-.229-.037-5.262-.385-5.262-.385l-3.838-3.838a.751.751,0,0,0-.537-.229l-2.8,57.433L50.1,69.537,42.99,21.466a.693.693,0,0,0-.574-.574Z" transform="translate(7.156 -8.721)"/>
    <path id="Path_19166" data-name="Path 19166" d="M36.038,25.4l-2.5,7.371A11.556,11.556,0,0,0,28.7,31.617c-3.918,0-4.107,2.457-4.107,3.073,0,3.355,8.792,4.646,8.792,12.556,0,6.219-3.955,10.213-9.254,10.213A12.9,12.9,0,0,1,14.5,53.5l1.694-5.647s3.337,2.879,6.183,2.879A2.512,2.512,0,0,0,24.986,48.2c0-4.419-7.219-4.609-7.219-11.826,0-6.069,4.375-11.982,13.168-11.982A11.284,11.284,0,0,1,36.044,25.4Z" transform="translate(-5.745 -2.096)" fill="#fff"/>
    <path id="Path_19167" data-name="Path 19167" d="M55.159,38.8c-1.436-.77-2.178-1.436-2.178-2.347,0-1.155,1.008-1.9,2.646-1.9a9.387,9.387,0,0,1,3.53.772L60.48,31.3s-1.214-.939-4.771-.939c-4.961,0-8.408,2.842-8.408,6.835,0,2.259,1.6,4,3.748,5.237,1.736,1.008,2.347,1.676,2.347,2.728s-.854,1.931-2.481,1.931a11.079,11.079,0,0,1-4.657-1.239l-1.4,4.023a10.721,10.721,0,0,0,5.6,1.4c5.1,0,8.764-2.508,8.764-7.041.028-2.453-1.821-4.162-4.034-5.458ZM75.5,30.338a7.634,7.634,0,0,0-6.01,3.018l-.084-.028,2.178-11.4H65.909L60.4,50.956h5.678l1.9-9.923c.744-3.748,2.682-6.065,4.492-6.065,1.265,0,1.764.854,1.764,2.1a12.942,12.942,0,0,1-.248,2.508L71.835,50.928h5.678l2.233-11.734a21.139,21.139,0,0,0,.413-3.685c-.027-3.2-1.709-5.126-4.657-5.126Zm17.473,0c-6.835,0-11.357,6.175-11.357,13.018,0,4.411,2.728,7.939,7.829,7.939,6.705,0,11.247-6.01,11.247-13.018,0-4.08-2.4-7.939-7.71-7.939ZM90.187,46.959c-1.931,0-2.756-1.65-2.756-3.685,0-3.253,1.676-8.572,4.771-8.572,2.011,0,2.682,1.736,2.682,3.419-.007,3.493-1.687,8.838-4.694,8.838Zm25.027-16.621a7.742,7.742,0,0,0-6.01,3.352h-.084l.336-3.018h-5.029L103.271,38.2,99.329,58.983h5.653l1.573-8.408h.11a6.55,6.55,0,0,0,3.337.744c6.67,0,11.025-6.835,11.025-13.744.027-3.8-1.676-7.22-5.816-7.22Zm-5.431,16.7a3.539,3.539,0,0,1-2.347-.829l.939-5.321c.671-3.53,2.508-5.9,4.492-5.9,1.736,0,2.259,1.6,2.259,3.117.009,3.7-2.164,8.935-5.336,8.935Zm19.38-24.862a3.228,3.228,0,0,0-2.316.957,3.143,3.143,0,0,0-.917,2.325,2.63,2.63,0,0,0,2.682,2.842h.084a3.209,3.209,0,0,0,3.335-3.282,2.7,2.7,0,0,0-2.842-2.842ZM121.232,50.9h5.678l3.858-20.114h-5.7m20.169-.028h-3.966l.194-.939c.336-1.931,1.489-3.667,3.352-3.667a6.179,6.179,0,0,1,1.821.275l1.1-4.443a7.6,7.6,0,0,0-3.088-.5,8.489,8.489,0,0,0-5.568,1.9,10.83,10.83,0,0,0-3.3,6.423l-.183.939H132.95l-.829,4.272h2.646L131.749,50.9h5.7l3.018-15.878h3.916l.77-4.272Zm13.674.028-5.156,13.838h-.084l-1.4-13.838h-5.985L149.7,49.254a1.3,1.3,0,0,1-.11.939,9.784,9.784,0,0,1-3.088,3.42,12.892,12.892,0,0,1-3.2,1.6l1.573,4.822a13.018,13.018,0,0,0,5.557-3.1c2.591-2.428,4.987-6.175,7.444-11.276l6.945-14.884H158.91Z" transform="translate(19.556 -4.515)"/>
  </g>
</svg>
