<svg xmlns="http://www.w3.org/2000/svg" width="22.632" height="18.725" viewBox="0 0 22.632 18.725">
  <path id="Path_19177" data-name="Path 19177" d="M213.21,41.395l.049.81-.817-.1a13.293,13.293,0,0,1-7.784-3.835L203.578,37.2l-.278.793a4.774,4.774,0,0,0,1.013,4.893c.654.694.507.793-.62.38a1.93,1.93,0,0,0-.769-.182,5.931,5.931,0,0,0,.588,2.215,5.282,5.282,0,0,0,2.24,2.116l.8.38-.949.017c-.916,0-.948.017-.85.364a4.942,4.942,0,0,0,3.057,2.711l1.014.347-.883.529a9.2,9.2,0,0,1-4.382,1.223,4.846,4.846,0,0,0-1.342.132,12.439,12.439,0,0,0,3.157,1.455A13.8,13.8,0,0,0,216.1,53.345a14.369,14.369,0,0,0,5.446-6.413,17.08,17.08,0,0,0,1.113-4.959c0-.76.049-.859.964-1.769a10.843,10.843,0,0,0,1.145-1.273c.163-.314.147-.314-.686-.033-1.39.5-1.586.43-.9-.314a4.8,4.8,0,0,0,1.111-1.769c0-.05-.245.033-.523.182a9.1,9.1,0,0,1-1.439.562l-.883.281-.8-.545a6.643,6.643,0,0,0-1.389-.727,5.585,5.585,0,0,0-2.863.066A4.733,4.733,0,0,0,213.21,41.395Z" transform="translate(-202.22 -36.414)" fill="#237feb" fill-rule="evenodd"/>
</svg>
