<svg xmlns="http://www.w3.org/2000/svg" width="24.442" height="17.588" viewBox="0 0 24.442 17.588">
  <path id="Path_19179" data-name="Path 19179" d="M279.189,37.518a3.107,3.107,0,0,1,2.161,2.221,36.094,36.094,0,0,1,0,12.1,3.108,3.108,0,0,1-2.161,2.222c-1.906.525-9.55.525-9.55.525s-7.643,0-9.549-.525a3.1,3.1,0,0,1-2.161-2.222,36.007,36.007,0,0,1,0-12.1,3.1,3.1,0,0,1,2.161-2.221c1.906-.525,9.549-.525,9.549-.525S277.283,36.992,279.189,37.518Zm-11.84,4.828v7.647l6.111-3.823Z" transform="translate(-257.418 -36.992)" fill="#237feb" fill-rule="evenodd"/>
</svg>
